<svg version="1.1" xmlns="http://www.w3.org/2000/svg" xmlns:xlink="http://www.w3.org/1999/xlink" width="114.29246" height="145.58137" viewBox="0,0,114.29246,145.58137"><g transform="translate(-182.85377,-107.20931)"><g data-paper-data="{&quot;isPaintingLayer&quot;:true}" fill-rule="nonzero" stroke-linecap="butt" stroke-linejoin="miter" stroke-miterlimit="10" stroke-dasharray="" stroke-dashoffset="0" style="mix-blend-mode: normal"><path d="" fill="#ffc187" stroke="none" stroke-width="0.5"/><path d="" fill="#000000" stroke="none" stroke-width="0.5"/><path d="" fill="#000000" stroke="none" stroke-width="0.5"/><path d="" fill="#000000" stroke="none" stroke-width="0.5"/><path d="" fill="#efff00" stroke="none" stroke-width="0.5"/><g fill="none" stroke="#808080" stroke-width="2"><path d="M198.51082,157.00841c0.05743,0.10318 0.18114,0.14863 0.28989,0.10649l3.49347,-1.38438c0.11182,-0.04421 0.1881,-0.12049 0.19228,-0.19228l0.00887,-0.13903c0.00209,-0.02784 0.01448,-0.05379 0.03388,-0.0709c0.0194,-0.01712 0.04382,-0.02364 0.0667,-0.01783c0.22876,0.05916 0.39047,-0.02268 0.48512,-0.24552c0.08085,-0.18932 0.12819,-0.2958 0.14199,-0.31947c1.58158,-2.7017 3.1809,-5.42313 4.79798,-8.16427c0.04387,-0.07351 0.02479,-0.16891 -0.04438,-0.22186c-0.25637,-0.18537 -0.39243,-0.40821 -0.40821,-0.66853c-0.00488,-0.08232 -0.06882,-0.14627 -0.14495,-0.14494c-5.60061,0.10649 -11.2022,0.17748 -16.80477,0.21298c-0.32736,0.00395 -0.7198,0.09959 -1.17731,0.28693c-0.03836,0.01497 -0.08123,0.01326 -0.11829,-0.0047c-0.03705,-0.01796 -0.06494,-0.05057 -0.07695,-0.08995c-0.08282,-0.28003 -0.2889,-0.44865 -0.61824,-0.50583c-0.75529,-0.13016 -1.36762,-0.45159 -1.83696,-0.96433c-0.32539,-0.35695 -0.66359,-0.92587 -1.01462,-1.7068c-0.60344,-1.341 -0.88743,-2.90187 -0.85192,-4.68262c0.05719,-2.92454 0.04437,-9.36031 -0.03845,-19.3073c-0.0138,-1.67822 0.11339,-2.92849 0.3816,-3.75083c0.50879,-1.55989 1.42678,-2.84172 2.75396,-3.84548c0.65669,-0.49695 1.47312,-0.85488 2.44928,-1.07378c1.88527,-0.42399 3.79619,-0.59161 5.73274,-0.50286c1.51256,0.06902 2.27673,0.10452 2.29251,0.10649c6.52747,0.12818 13.05395,0.27017 19.57945,0.42596c1.95035,0.04733 3.80803,0.03451 5.573,-0.03845c1.85766,-0.07494 3.71534,-0.16072 5.573,-0.25735c3.74491,-0.19524 7.4918,-0.2475 11.24065,-0.15678c2.23236,0.05521 3.92733,0.92489 5.08492,2.60901c0.52851,0.77107 0.99293,1.82809 1.39325,3.17104c0.70205,2.36251 1.15463,4.77333 1.35775,7.23247c0.65275,7.88621 0.18537,15.70241 -1.40212,23.4486c-0.13607,0.66064 -0.48414,1.51847 -1.04419,2.57351c-1.32522,2.49266 -2.89496,4.82165 -4.70925,6.98696c-0.04919,0.0593 -0.0641,0.13987 -0.03938,0.21285c0.02473,0.07298 0.08555,0.1279 0.16066,0.14507c1.95627,0.43385 3.93817,0.82332 5.94571,1.16844c2.96596,0.50879 4.90743,0.84896 5.82443,1.02053c2.86932,0.53245 6.2711,1.13097 10.20533,1.79555c0.73557,0.12423 1.39423,0.10156 1.97599,-0.06804c2.5321,-0.74149 4.86109,-1.84386 6.98695,-3.30712c1.4455,-0.99391 2.95906,-2.25701 4.54064,-3.78929c2.49266,-2.4197 4.59191,-5.16478 6.29772,-8.23525c0.14001,-0.25242 0.28693,-0.62316 0.44076,-1.11224c0.02958,-0.09268 0.12029,-0.47822 0.27214,-1.15661c0.10255,-0.45554 0.25242,-0.89334 0.44963,-1.31338c0.22481,-0.47527 0.36779,-0.91109 0.42892,-1.30747c0.07494,-0.48709 0.16663,-0.97222 0.2751,-1.45536c0.08282,-0.37272 0.31455,-0.5709 0.69514,-0.59457c0.42596,-0.02958 0.80952,0.07296 1.15069,0.30764c0.26228,0.17748 0.49498,0.47428 0.6981,0.89038c0.44174,0.90714 0.7336,1.90893 0.87559,3.00539c0.39835,3.03498 0.5009,5.98318 0.30764,8.84463c-0.02761,0.42399 -0.01873,0.8608 0.02663,1.31042c0.04536,0.4378 0.0779,0.87658 0.09761,1.31635c0.01183,0.21693 0.06705,0.39441 0.16565,0.53245c0.0848,0.11635 0.18143,0.22382 0.28989,0.32243c0.06705,0.06311 0.05619,0.10846 -0.03254,0.13607c-0.60541,0.18735 -0.94165,0.59457 -1.0087,1.22168c-0.04338,0.40229 -0.06508,0.60739 -0.06508,0.61528c-0.56203,3.03103 -1.552,5.925 -2.96989,8.68193c-0.17157,0.33131 -0.20608,0.67641 -0.10353,1.03532c0.21889,0.76318 0.7198,1.39325 1.5027,1.89021c3.68773,2.33687 6.28195,5.52271 7.78268,9.55751c0.23467,0.63106 0.35891,1.32522 0.37272,2.08248c0.02958,1.68018 0.04634,4.25666 0.05029,7.72943c0.00198,1.4534 -0.12917,2.72832 -0.39342,3.82479c-0.3392,1.41001 -0.70107,2.81411 -1.08561,4.21229c-0.00591,0.01973 -0.34609,1.09646 -1.02053,3.2302c-0.76515,2.41378 -1.2138,4.96857 -1.34592,7.66436c-0.04141,0.84601 0.21692,1.52834 0.77502,2.04698c0.06436,0.05877 0.1581,0.08967 0.26031,0.08578c0.59753,-0.01972 0.95644,0.25538 1.07674,0.8253c0.05718,0.27609 0.08776,0.42202 0.0917,0.4378c0.4516,1.64469 0.6774,3.32289 0.6774,5.03463c0.00198,11.78297 0.00297,23.52945 0.00297,35.23945c-0.00025,0.17626 0.13755,0.32186 0.31356,0.33131c0.27017,0.0138 0.44272,0.06015 0.51766,0.13903c0.08677,0.09268 0.05029,0.13903 -0.10944,0.13903l-22.66767,0.01775c-0.13233,0 -0.23961,-0.10727 -0.23961,-0.23961c0,-11.25249 0,-22.40342 0,-33.45278c0,-2.8358 0.02366,-4.38188 0.071,-4.63825c0.29778,-1.64074 1.15562,-3.0192 2.57352,-4.13538c0.62514,-0.49301 0.79967,-1.11125 0.52358,-1.85471c-0.35497,-0.96433 -0.76712,-1.90303 -1.23647,-2.81608c-0.22876,-0.44371 -0.42695,-0.93869 -0.59457,-1.48495c-0.15776,-0.51273 -0.34313,-1.0156 -0.55612,-1.50862c-0.04338,-0.10057 -0.08085,-0.10057 -0.11241,0c-0.07494,0.24059 -0.06902,0.48709 0.01775,0.73952c0.03197,0.09624 0.02552,0.19522 -0.01775,0.27214c-0.44568,0.80263 -1.08758,1.20196 -1.9257,1.19802c-1.60919,-0.00789 -3.28346,0.13509 -5.0228,0.42892c-0.17717,0.02918 -0.32508,0.15111 -0.38751,0.31947c-0.24059,0.66064 -0.36779,0.77994 -0.3816,0.35793c-0.01775,-0.59162 -0.23073,-0.80361 -0.63894,-0.63598c-0.08375,0.03528 -0.14736,0.11315 -0.17157,0.21003c-0.32736,1.26802 -0.19622,2.4759 0.39342,3.62363c0.0441,0.08417 0.11726,0.15106 0.20706,0.18932c1.27986,0.54626 2.18109,1.40508 2.70368,2.57647c0.27411,0.61133 0.41413,1.54115 0.42004,2.78946c0.05325,10.14815 0.11931,20.29629 0.19819,30.44444c0.01775,2.46703 -0.04831,4.90448 -0.19819,7.31234c-0.01094,0.17157 -0.15346,0.30503 -0.32539,0.30469h-21.42232c-0.08169,0 -0.1479,-0.06622 -0.1479,-0.1479l-0.01775,-41.83891c0.00049,-0.08498 -0.06341,-0.15655 -0.1479,-0.16565c-0.70401,-0.07296 -1.29563,0.09368 -1.77484,0.49992c-0.4654,0.39244 -0.95742,0.635 -1.47608,0.72769c-0.00197,0.00198 -0.53344,0.02071 -1.5944,0.0562c-2.48872,0.08677 -5.05238,0.18044 -7.69098,0.28102c-0.16479,0.0048 -0.29588,0.13982 -0.2958,0.30468c0.00789,3.37022 0.04141,6.78976 0.10057,10.25858c0.17157,9.95291 0.22481,19.90582 0.15973,29.85873c0,0.08169 -0.06621,0.1479 -0.1479,0.1479l-23.3007,0.01775c-0.10946,0 -0.19819,-0.08874 -0.19819,-0.19819c0.00395,-12.58362 0.00395,-25.09131 0,-37.52308c0,-1.22464 0.07198,-2.05192 0.21593,-2.48182c0.282,-0.84404 0.83418,-1.51847 1.65652,-2.02332c0.14677,-0.08941 0.20701,-0.27139 0.14198,-0.42892c-0.49893,-1.23449 -0.91897,-2.46406 -1.26013,-3.68871c-0.67444,-2.42562 -1.01856,-3.66307 -1.03237,-3.71237c-0.35102,-1.23647 -0.63894,-2.4897 -0.86375,-3.75971c-0.11437,-0.64485 -0.30172,-1.26802 -0.56203,-1.8695c-0.72572,-1.67427 -1.42776,-3.35937 -2.10614,-5.05534c-1.03335,-2.58535 -1.5382,-5.16478 -1.51453,-7.7383c0.01578,-1.79456 0.51668,-3.53292 1.5027,-5.21508c1.85766,-3.17302 3.18879,-6.55705 3.99339,-10.15208c0.00799,-0.03545 -0.00034,-0.07261 -0.02268,-0.10126c-0.02234,-0.02865 -0.05636,-0.04577 -0.09268,-0.04666c-2.29151,-0.06311 -4.28229,-0.31454 -5.97234,-0.7543c-1.51059,-0.39243 -2.89595,-1.08463 -4.15608,-2.07656c-0.91502,-0.7198 -1.98585,-1.80343 -3.21246,-3.25091c-2.99751,-3.53785 -4.97942,-7.62886 -5.94572,-12.27302c-0.02564,-0.12819 -0.00493,-0.20114 0.06212,-0.21889c0.06246,-0.0177 0.15589,0.03197 0.23368,0.12423l7.44841,8.7825c0.0536,0.06436 0.14727,0.08777 0.23664,0.05916c0.27214,-0.0848 0.46541,-0.02268 0.57978,0.18636"/><path d="M196.79218,139.03224c-1.45236,0 -2.62972,-1.92828 -2.62972,-4.30695c0,-2.37867 1.17736,-4.30695 2.62972,-4.30695c1.45236,0 2.62972,1.92828 2.62972,4.30695c0,2.37867 -1.17736,4.30695 -2.62972,4.30695"/><path d="M216.487,139.46411c-1.29389,0 -2.3428,-1.96669 -2.3428,-4.39272c0,-2.42604 1.04891,-4.39273 2.3428,-4.39273c1.29388,0 2.34279,1.9667 2.34279,4.39273c0,2.42603 -1.0489,4.39272 -2.34279,4.39272"/></g><path d="M182.85377,143.02858v-29.95043c0.29186,-1.19506 0.87757,-2.30434 1.75709,-3.32783c0.97616,-1.13787 2.16728,-1.83794 3.57335,-2.10023c1.41593,-0.26622 2.84368,-0.39639 4.28327,-0.39047c9.39088,0.03155 17.69812,0.17749 24.92172,0.4378c2.07656,0.07494 3.77745,0.07002 5.10267,-0.01478c6.72467,-0.4299 13.45427,-0.56697 20.18881,-0.41117c2.68198,0.06311 4.60275,1.269 5.76232,3.61771c0.5147,1.04123 0.91207,2.12587 1.1921,3.25388c0.54231,2.18305 0.89038,4.39766 1.0442,6.64382c0.41611,6.08376 0.38751,12.2957 -0.08578,18.63582c-0.11241,1.50073 -0.26327,2.92257 -0.45258,4.26553c-0.29384,2.07853 -0.53245,3.48559 -0.71585,4.22116c-0.38652,1.55989 -1.01265,3.03498 -1.87838,4.42527c-0.33327,0.53837 -0.67642,1.12308 -1.02941,1.75414c-0.01778,0.03112 -0.01965,0.06886 -0.00504,0.10158c0.01461,0.03273 0.04395,0.05652 0.079,0.06407c1.78865,0.38652 3.56151,0.72769 5.3186,1.02349c1.64469,0.27609 3.41952,0.60246 5.32452,0.97912c1.81823,0.36089 3.6473,0.66655 5.48721,0.917c0.65078,0.08677 1.28676,0.02268 1.90795,-0.19227c1.93064,-0.67049 3.71534,-1.58257 5.3541,-2.73621c1.36663,-0.96236 2.86243,-2.24517 4.48739,-3.84844c1.86753,-1.84386 3.57729,-3.94311 5.12929,-6.29773c0.70401,-1.06687 1.22464,-2.13376 1.56186,-3.20063c0.42005,-1.33113 0.63401,-2.00755 0.6419,-2.02923c0.35299,-1.01166 0.61626,-2.00754 0.7898,-2.98764c0.06113,-0.34313 0.26623,-0.51766 0.61528,-0.52358c1.5027,-0.03352 2.98075,-0.0562 4.43414,-0.06803c0.47723,-0.00395 0.9101,0.09762 1.29859,0.30469c0.33722,0.17748 0.61725,0.49203 0.84008,0.94362c0.66261,1.341 1.03433,2.86933 1.11519,4.58501c0.13805,2.95018 0.22778,5.31664 0.26919,7.09937c0.02564,1.12998 0.08085,2.50844 0.16565,4.13538c0.071,1.38043 0.09959,2.76284 0.08578,4.14721c-0.00193,0.10565 -0.03835,0.19884 -0.10058,0.25735l-0.36088,0.33722c-0.0848,0.07889 -0.13903,0.15481 -0.1627,0.22777c-0.09663,0.31749 -0.23467,0.9308 -0.41413,1.83992c-0.37075,1.8833 -0.97418,3.76956 -1.81033,5.65878c-0.07271,0.16712 -0.01391,0.36232 0.13903,0.46145c2.43941,1.55003 4.4164,3.46784 5.93093,5.75345c0.93475,1.41593 1.57666,2.57548 1.9257,3.47868c0.42202,1.08857 0.61429,2.24025 0.57682,3.45503c-0.02169,0.74149 -0.03254,1.12012 -0.03254,1.1359c0,3.65618 0.00098,7.31234 0.00296,10.96851c0,1.28183 -0.14987,2.54492 -0.44963,3.78928c-0.59161,2.44534 -1.28478,4.86208 -2.07952,7.25022c-0.41807,1.25422 -0.75923,2.53014 -1.02349,3.82774c-0.09663,0.47132 0.09368,0.73656 0.57091,0.79572c0.58176,0.07296 0.97813,0.33623 1.18914,0.7898c0.02169,0.04536 0.13016,0.4654 0.32539,1.26014c0.39638,1.60721 0.58865,3.02413 0.57682,4.25074c-0.10649,11.59365 -0.10747,23.18829 -0.00296,34.78391c0,0.01973 -0.00986,0.14889 -0.02958,0.38751c-0.03155,0.37469 0.15973,0.58274 0.57386,0.62415c0.09985,0.01037 0.17685,0.09494 0.18044,0.19819l0.10058,4.29808c0.00319,0.11505 -0.03933,0.2265 -0.1179,0.30897c-0.07857,0.08247 -0.18649,0.12894 -0.29919,0.12883l-53.17126,0.01775c-0.14213,0 -0.25735,-0.11655 -0.25735,-0.26031l-0.01775,-40.26226c0.00004,-0.0973 -0.0392,-0.19039 -0.10854,-0.25749c-0.06934,-0.0671 -0.16271,-0.10235 -0.25827,-0.09748l-7.60519,0.35201c-0.15461,0.00634 -0.27563,0.13788 -0.27214,0.29581c0.01578,0.86967 0.05127,1.75807 0.10649,2.66522c0.06507,1.04716 0.09959,1.93458 0.10353,2.66227c0.07691,11.39645 0.0986,22.91418 0.06508,34.55318c-0.00162,0.19324 -0.15742,0.34905 -0.34905,0.34905h-27.80583c-0.13397,0 -0.24256,-0.1086 -0.24256,-0.24256c0,-14.72723 0,-29.33811 0,-43.83264c0,-0.46541 0.27116,-1.16253 0.81347,-2.09136c0.04705,-0.08104 0.05675,-0.1791 0.02663,-0.26918c-1.06491,-3.28543 -1.69004,-5.50595 -1.87541,-6.66157c-0.17748,-1.10434 -0.38159,-1.91486 -0.61232,-2.43153c-0.72769,-1.6368 -1.41099,-3.29134 -2.04994,-4.96364c-0.63697,-1.66637 -1.02645,-2.8999 -1.16844,-3.70055c-0.48709,-2.75888 -0.66458,-5.66667 -0.53245,-8.72334c0.04338,-1.01166 0.18735,-1.88823 0.43188,-2.62972c0.54626,-1.65849 1.26309,-3.24106 2.15052,-4.7477c0.61922,-1.05505 1.1359,-2.21066 1.55003,-3.46685c0.02304,-0.07098 0.01253,-0.14859 -0.02849,-0.2104c-0.04101,-0.06181 -0.10797,-0.10095 -0.18153,-0.10611c-0.95841,-0.07494 -1.89908,-0.18735 -2.822,-0.33722c-1.08857,-0.17748 -2.00162,-0.41611 -2.73917,-0.71586c-1.71765,-0.69416 -3.28543,-1.78076 -4.70333,-3.25979c-3.33078,-3.47671 -5.65582,-7.39714 -6.97513,-11.76127c-0.00197,-0.00591 -0.15579,-0.65176 -0.46146,-1.93753c-0.21495,-0.90122 -0.53639,-1.78865 -0.96433,-2.66226c-0.06941,-0.14281 -0.20931,-0.23758 -0.3668,-0.24848c-0.72572,-0.04536 -1.33902,-0.36286 -1.83992,-0.9525c-0.9308,-1.09646 -1.46819,-2.36646 -1.61215,-3.80999zM198.51082,157.00841c-0.11437,-0.20903 -0.30764,-0.27116 -0.57978,-0.18636c-0.08937,0.02861 -0.18305,0.0052 -0.23664,-0.05916l-7.44841,-8.7825c-0.0778,-0.09227 -0.17122,-0.14193 -0.23368,-0.12423c-0.06705,0.01775 -0.08776,0.09071 -0.06212,0.21889c0.9663,4.64417 2.94821,8.73518 5.94572,12.27302c1.22661,1.44748 2.29743,2.53112 3.21246,3.25091c1.26013,0.99193 2.6455,1.68413 4.15608,2.07656c1.69004,0.43977 3.68082,0.6912 5.97234,0.7543c0.03633,0.00089 0.07034,0.01801 0.09268,0.04666c0.02234,0.02865 0.03067,0.06581 0.02268,0.10126c-0.80459,3.59503 -2.13572,6.97906 -3.99339,10.15208c-0.98602,1.68215 -1.48692,3.42052 -1.5027,5.21508c-0.02366,2.57352 0.48118,5.15295 1.51453,7.7383c0.67838,1.69596 1.38043,3.38107 2.10614,5.05534c0.26031,0.60148 0.44766,1.22464 0.56203,1.8695c0.22481,1.26999 0.51273,2.52323 0.86375,3.75971c0.0138,0.0493 0.35793,1.28676 1.03237,3.71237c0.34116,1.22464 0.76121,2.45421 1.26013,3.68871c0.06503,0.15753 0.00479,0.33951 -0.14198,0.42892c-0.82234,0.50485 -1.37452,1.17928 -1.65652,2.02332c-0.14396,0.4299 -0.21593,1.25719 -0.21593,2.48182c0.00395,12.43178 0.00395,24.93946 0,37.52308c0,0.10946 0.08873,0.19819 0.19819,0.19819l23.3007,-0.01775c0.08169,0 0.1479,-0.06622 0.1479,-0.1479c0.06508,-9.95291 0.01183,-19.90582 -0.15973,-29.85873c-0.05916,-3.46882 -0.09268,-6.88836 -0.10057,-10.25858c-0.00008,-0.16486 0.13101,-0.29988 0.2958,-0.30468c2.6386,-0.10058 5.20226,-0.19425 7.69098,-0.28102c1.06096,-0.0355 1.59243,-0.05423 1.5944,-0.0562c0.51865,-0.09268 1.01067,-0.33524 1.47608,-0.72769c0.47921,-0.40624 1.07083,-0.57288 1.77484,-0.49992c0.08449,0.00911 0.14839,0.08068 0.1479,0.16565l0.01775,41.83891c0,0.08169 0.06621,0.1479 0.1479,0.1479h21.42233c0.17192,0.00035 0.31445,-0.13311 0.32539,-0.30469c0.14987,-2.40786 0.21593,-4.84531 0.19819,-7.31234c-0.07888,-10.14815 -0.14494,-20.29629 -0.19819,-30.44444c-0.00591,-1.24831 -0.14594,-2.17812 -0.42005,-2.78946c-0.52259,-1.17139 -1.42382,-2.03022 -2.70368,-2.57647c-0.08981,-0.03826 -0.16296,-0.10515 -0.20706,-0.18932c-0.58964,-1.14773 -0.72078,-2.35561 -0.39342,-3.62363c0.02421,-0.09688 0.08782,-0.17475 0.17157,-0.21003c0.40821,-0.16762 0.62119,0.04438 0.63894,0.63598c0.0138,0.42202 0.141,0.30271 0.3816,-0.35793c0.06242,-0.16835 0.21034,-0.29029 0.38751,-0.31947c1.73934,-0.29384 3.41362,-0.43681 5.0228,-0.42892c0.83812,0.00395 1.48002,-0.39539 1.9257,-1.19802c0.04327,-0.07693 0.04972,-0.1759 0.01775,-0.27214c-0.08677,-0.25242 -0.09268,-0.49893 -0.01775,-0.73952c0.03155,-0.10057 0.06902,-0.10057 0.11241,0c0.21299,0.49301 0.39835,0.99589 0.55612,1.50862c0.16762,0.54626 0.36582,1.04124 0.59457,1.48495c0.46935,0.91306 0.8815,1.85175 1.23647,2.81608c0.27609,0.74347 0.10156,1.3617 -0.52358,1.85471c-1.41791,1.11617 -2.27575,2.49464 -2.57352,4.13538c-0.04732,0.25637 -0.071,1.80245 -0.071,4.63825c0,11.04937 0,22.2003 0,33.45278c0,0.13233 0.10727,0.23961 0.23961,0.23961l22.66767,-0.01775c0.15973,0 0.19622,-0.04634 0.10944,-0.13903c-0.07494,-0.07888 -0.24749,-0.12522 -0.51766,-0.13903c-0.17601,-0.00944 -0.3138,-0.15504 -0.31355,-0.33131c0,-11.71 -0.00099,-23.45649 -0.00297,-35.23945c0,-1.71174 -0.22579,-3.38994 -0.6774,-5.03463c-0.00395,-0.01578 -0.03452,-0.16171 -0.0917,-0.4378c-0.1203,-0.56992 -0.4792,-0.84502 -1.07673,-0.8253c-0.10221,0.00388 -0.19595,-0.02701 -0.26031,-0.08578c-0.55809,-0.51865 -0.81642,-1.20098 -0.77502,-2.04698c0.13213,-2.69578 0.58077,-5.25057 1.34592,-7.66436c0.67444,-2.13375 1.01462,-3.21049 1.02053,-3.2302c0.38454,-1.39818 0.74642,-2.80227 1.08561,-4.21229c0.26426,-1.09646 0.3954,-2.37138 0.39342,-3.82479c-0.00395,-3.47277 -0.02071,-6.04925 -0.05029,-7.72943c-0.0138,-0.75726 -0.13805,-1.45143 -0.37272,-2.08248c-1.50073,-4.0348 -4.09495,-7.22064 -7.78267,-9.55751c-0.7829,-0.49696 -1.2838,-1.12702 -1.5027,-1.89021c-0.10255,-0.35891 -0.06803,-0.70402 0.10353,-1.03532c1.41791,-2.75692 2.40786,-5.6509 2.96989,-8.68193c0,-0.00789 0.02169,-0.21299 0.06508,-0.61528c0.06705,-0.62711 0.40328,-1.03434 1.0087,-1.22168c0.08874,-0.02761 0.09959,-0.07296 0.03254,-0.13607c-0.10846,-0.0986 -0.20509,-0.20608 -0.28989,-0.32243c-0.0986,-0.13805 -0.15383,-0.31553 -0.16565,-0.53245c-0.01973,-0.43977 -0.05226,-0.87855 -0.09761,-1.31635c-0.04536,-0.44963 -0.05423,-0.88644 -0.02663,-1.31042c0.19326,-2.86143 0.09071,-5.80964 -0.30764,-8.84463c-0.14198,-1.09646 -0.43385,-2.09825 -0.87559,-3.00539c-0.20312,-0.41611 -0.43582,-0.71289 -0.6981,-0.89038c-0.34116,-0.23467 -0.72472,-0.33722 -1.15068,-0.30764c-0.38061,0.02367 -0.61232,0.22186 -0.69515,0.59457c-0.10846,0.48315 -0.20016,0.96827 -0.2751,1.45536c-0.06113,0.39638 -0.20411,0.8322 -0.42892,1.30747c-0.19721,0.42004 -0.34708,0.85784 -0.44963,1.31338c-0.15185,0.67838 -0.24256,1.06392 -0.27215,1.15661c-0.15382,0.48907 -0.30073,0.85982 -0.44075,1.11224c-1.70582,3.07047 -3.80506,5.81555 -6.29772,8.23525c-1.58158,1.53228 -3.09512,2.79538 -4.54064,3.78929c-2.12587,1.46325 -4.45484,2.56563 -6.98695,3.30712c-0.58176,0.16959 -1.24042,0.19227 -1.97598,0.06804c-3.93423,-0.66458 -7.33601,-1.2631 -10.20533,-1.79555c-0.917,-0.17157 -2.85848,-0.51174 -5.82443,-1.02053c-2.00754,-0.34511 -3.98944,-0.73459 -5.94571,-1.16844c-0.07511,-0.01717 -0.13593,-0.07209 -0.16066,-0.14507c-0.02473,-0.07298 -0.00982,-0.15355 0.03938,-0.21285c1.81428,-2.1653 3.38403,-4.49429 4.70925,-6.98696c0.56006,-1.05505 0.90812,-1.91288 1.04419,-2.57351c1.5875,-7.74619 2.05487,-15.5624 1.40212,-23.4486c-0.20312,-2.45914 -0.6557,-4.86996 -1.35775,-7.23247c-0.40032,-1.34296 -0.86474,-2.39998 -1.39325,-3.17104c-1.15759,-1.68412 -2.85256,-2.5538 -5.08491,-2.60901c-3.74886,-0.09071 -7.49574,-0.03845 -11.24065,0.15678c-1.85766,0.09663 -3.71534,0.18241 -5.573,0.25735c-1.76497,0.07296 -3.62265,0.08579 -5.573,0.03845c-6.5255,-0.15579 -13.05197,-0.29778 -19.57945,-0.42596c-0.01577,-0.00198 -0.77994,-0.03747 -2.29251,-0.10649c-1.93655,-0.08874 -3.84746,0.07888 -5.73274,0.50286c-0.97616,0.2189 -1.79259,0.57682 -2.44928,1.07378c-1.32718,1.00378 -2.24517,2.2856 -2.75396,3.84548c-0.2682,0.82234 -0.3954,2.07262 -0.3816,3.75083c0.08283,9.94699 0.09565,16.38276 0.03845,19.3073c-0.0355,1.78076 0.24848,3.34163 0.85192,4.68262c0.35102,0.78093 0.68923,1.34986 1.01462,1.7068c0.46935,0.51273 1.08167,0.83418 1.83696,0.96433c0.32933,0.05718 0.53541,0.2258 0.61824,0.50583c0.01201,0.03939 0.0399,0.07199 0.07695,0.08995c0.03705,0.01796 0.07992,0.01967 0.11829,0.0047c0.45752,-0.18735 0.84995,-0.28298 1.17731,-0.28693c5.60259,-0.0355 11.20417,-0.10648 16.80477,-0.21298c0.07612,-0.00132 0.14006,0.06262 0.14495,0.14494c0.01578,0.26031 0.15185,0.48316 0.40821,0.66853c0.06916,0.05295 0.08825,0.14834 0.04438,0.22186c-1.61708,2.74114 -3.2164,5.46256 -4.79798,8.16427c-0.0138,0.02367 -0.06114,0.13016 -0.14199,0.31947c-0.09466,0.22284 -0.25636,0.30468 -0.48512,0.24552c-0.02289,-0.0058 -0.0473,0.00072 -0.0667,0.01783c-0.0194,0.01712 -0.0318,0.04307 -0.03388,0.0709l-0.00887,0.13903c-0.00418,0.07178 -0.08046,0.14806 -0.19228,0.19228l-3.49347,1.38438c-0.10876,0.04214 -0.23246,-0.00331 -0.28989,-0.10649zM268.12893,205.52368c0.18284,0.04566 0.34203,0.1574 0.44667,0.31355c0.45752,0.69219 0.83517,1.37254 1.13294,2.04107c0.071,0.16171 0.16171,0.21692 0.27214,0.16565c0.06539,-0.02965 0.11457,-0.12115 0.12719,-0.23664c0.03747,-0.34313 0.1903,-0.63006 0.4585,-0.8608c0.92291,-0.7967 0.89136,-1.46622 -0.09466,-2.00853c-0.07861,-0.04223 -0.17742,-0.05679 -0.28102,-0.04141l-2.2363,0.30764c-0.04747,0.0076 -0.09175,0.03149 -0.11792,0.06362c-0.02618,0.03213 -0.03078,0.06822 -0.01223,0.09612c0.04536,0.06705 0.14692,0.1203 0.30469,0.15974z" fill="#000000" stroke="none" stroke-width="1"/><path d="M198.51082,157.00841c0.05743,0.10318 0.18114,0.14863 0.28989,0.10649l3.49347,-1.38438c0.11182,-0.04421 0.1881,-0.12049 0.19228,-0.19228l0.00887,-0.13903c0.00209,-0.02784 0.01448,-0.05379 0.03388,-0.0709c0.0194,-0.01712 0.04382,-0.02364 0.0667,-0.01783c0.22876,0.05916 0.39047,-0.02268 0.48512,-0.24552c0.08085,-0.18932 0.12819,-0.2958 0.14199,-0.31947c1.58158,-2.7017 3.1809,-5.42313 4.79798,-8.16427c0.04387,-0.07351 0.02479,-0.16891 -0.04438,-0.22186c-0.25637,-0.18537 -0.39243,-0.40821 -0.40821,-0.66853c-0.00488,-0.08232 -0.06882,-0.14627 -0.14495,-0.14494c-5.60061,0.10649 -11.2022,0.17748 -16.80477,0.21298c-0.32736,0.00395 -0.7198,0.09959 -1.17731,0.28693c-0.03836,0.01497 -0.08123,0.01326 -0.11829,-0.0047c-0.03705,-0.01796 -0.06494,-0.05057 -0.07695,-0.08995c-0.08282,-0.28003 -0.2889,-0.44865 -0.61824,-0.50583c-0.75529,-0.13016 -1.36762,-0.45159 -1.83696,-0.96433c-0.32539,-0.35695 -0.66359,-0.92587 -1.01462,-1.7068c-0.60344,-1.341 -0.88743,-2.90187 -0.85192,-4.68262c0.05719,-2.92454 0.04437,-9.36031 -0.03845,-19.3073c-0.0138,-1.67822 0.11339,-2.92849 0.3816,-3.75083c0.50879,-1.55989 1.42678,-2.84172 2.75396,-3.84548c0.65669,-0.49695 1.47312,-0.85488 2.44928,-1.07378c1.88527,-0.42399 3.79619,-0.59161 5.73274,-0.50286c1.51256,0.06902 2.27673,0.10452 2.29251,0.10649c6.52747,0.12818 13.05395,0.27017 19.57945,0.42596c1.95035,0.04733 3.80803,0.03451 5.573,-0.03845c1.85766,-0.07494 3.71534,-0.16072 5.573,-0.25735c3.74491,-0.19524 7.4918,-0.2475 11.24065,-0.15678c2.23236,0.05521 3.92733,0.92489 5.08492,2.60901c0.52851,0.77107 0.99293,1.82809 1.39325,3.17104c0.70205,2.36251 1.15463,4.77333 1.35775,7.23247c0.65275,7.88621 0.18537,15.70241 -1.40212,23.4486c-0.13607,0.66064 -0.48414,1.51847 -1.04419,2.57351c-1.32522,2.49266 -2.89496,4.82165 -4.70925,6.98696c-0.04919,0.0593 -0.0641,0.13987 -0.03938,0.21285c0.02473,0.07298 0.08555,0.1279 0.16066,0.14507c1.95627,0.43385 3.93817,0.82332 5.94571,1.16844c2.96596,0.50879 4.90743,0.84896 5.82443,1.02053c2.86932,0.53245 6.2711,1.13097 10.20533,1.79555c0.73557,0.12423 1.39423,0.10156 1.97599,-0.06804c2.5321,-0.74149 4.86109,-1.84386 6.98695,-3.30712c1.4455,-0.99391 2.95906,-2.25701 4.54064,-3.78929c2.49266,-2.4197 4.59191,-5.16478 6.29772,-8.23525c0.14001,-0.25242 0.28693,-0.62316 0.44076,-1.11224c0.02958,-0.09268 0.12029,-0.47822 0.27214,-1.15661c0.10255,-0.45554 0.25242,-0.89334 0.44963,-1.31338c0.22481,-0.47527 0.36779,-0.91109 0.42892,-1.30747c0.07494,-0.48709 0.16663,-0.97222 0.2751,-1.45536c0.08282,-0.37272 0.31455,-0.5709 0.69514,-0.59457c0.42596,-0.02958 0.80952,0.07296 1.15069,0.30764c0.26228,0.17748 0.49498,0.47428 0.6981,0.89038c0.44174,0.90714 0.7336,1.90893 0.87559,3.00539c0.39835,3.03498 0.5009,5.98318 0.30764,8.84463c-0.02761,0.42399 -0.01873,0.8608 0.02663,1.31042c0.04536,0.4378 0.0779,0.87658 0.09761,1.31635c0.01183,0.21693 0.06705,0.39441 0.16565,0.53245c0.0848,0.11635 0.18143,0.22382 0.28989,0.32243c0.06705,0.06311 0.05619,0.10846 -0.03254,0.13607c-0.60541,0.18735 -0.94165,0.59457 -1.0087,1.22168c-0.04338,0.40229 -0.06508,0.60739 -0.06508,0.61528c-0.56203,3.03103 -1.552,5.925 -2.96989,8.68193c-0.17157,0.33131 -0.20608,0.67641 -0.10353,1.03532c0.21889,0.76318 0.7198,1.39325 1.5027,1.89021c3.68773,2.33687 6.28195,5.52271 7.78268,9.55751c0.23467,0.63106 0.35891,1.32522 0.37272,2.08248c0.02958,1.68018 0.04634,4.25666 0.05029,7.72943c0.00198,1.4534 -0.12917,2.72832 -0.39342,3.82479c-0.3392,1.41001 -0.70107,2.81411 -1.08561,4.21229c-0.00591,0.01973 -0.34609,1.09646 -1.02053,3.2302c-0.76515,2.41378 -1.2138,4.96857 -1.34592,7.66436c-0.04141,0.84601 0.21692,1.52834 0.77502,2.04698c0.06436,0.05877 0.1581,0.08967 0.26031,0.08578c0.59753,-0.01972 0.95644,0.25538 1.07674,0.8253c0.05718,0.27609 0.08776,0.42202 0.0917,0.4378c0.4516,1.64469 0.6774,3.32289 0.6774,5.03463c0.00198,11.78297 0.00297,23.52945 0.00297,35.23945c-0.00025,0.17626 0.13755,0.32186 0.31356,0.33131c0.27017,0.0138 0.44272,0.06015 0.51766,0.13903c0.08677,0.09268 0.05029,0.13903 -0.10944,0.13903l-22.66767,0.01775c-0.13233,0 -0.23961,-0.10727 -0.23961,-0.23961c0,-11.25249 0,-22.40342 0,-33.45278c0,-2.8358 0.02366,-4.38188 0.071,-4.63825c0.29778,-1.64074 1.15562,-3.0192 2.57352,-4.13538c0.62514,-0.49301 0.79967,-1.11125 0.52358,-1.85471c-0.35497,-0.96433 -0.76712,-1.90303 -1.23647,-2.81608c-0.22876,-0.44371 -0.42695,-0.93869 -0.59457,-1.48495c-0.15776,-0.51273 -0.34313,-1.0156 -0.55612,-1.50862c-0.04338,-0.10057 -0.08085,-0.10057 -0.11241,0c-0.07494,0.24059 -0.06902,0.48709 0.01775,0.73952c0.03197,0.09624 0.02552,0.19522 -0.01775,0.27214c-0.44568,0.80263 -1.08758,1.20196 -1.9257,1.19802c-1.60919,-0.00789 -3.28346,0.13509 -5.0228,0.42892c-0.17717,0.02918 -0.32508,0.15111 -0.38751,0.31947c-0.24059,0.66064 -0.36779,0.77994 -0.3816,0.35793c-0.01775,-0.59162 -0.23073,-0.80361 -0.63894,-0.63598c-0.08375,0.03528 -0.14736,0.11315 -0.17157,0.21003c-0.32736,1.26802 -0.19622,2.4759 0.39342,3.62363c0.0441,0.08417 0.11726,0.15106 0.20706,0.18932c1.27986,0.54626 2.18109,1.40508 2.70368,2.57647c0.27411,0.61133 0.41413,1.54115 0.42004,2.78946c0.05325,10.14815 0.11931,20.29629 0.19819,30.44444c0.01775,2.46703 -0.04831,4.90448 -0.19819,7.31234c-0.01094,0.17157 -0.15346,0.30503 -0.32539,0.30469h-21.42232c-0.08169,0 -0.1479,-0.06622 -0.1479,-0.1479l-0.01775,-41.83891c0.00049,-0.08498 -0.06341,-0.15655 -0.1479,-0.16565c-0.70401,-0.07296 -1.29563,0.09368 -1.77484,0.49992c-0.4654,0.39244 -0.95742,0.635 -1.47608,0.72769c-0.00197,0.00198 -0.53344,0.02071 -1.5944,0.0562c-2.48872,0.08677 -5.05238,0.18044 -7.69098,0.28102c-0.16479,0.0048 -0.29588,0.13982 -0.2958,0.30468c0.00789,3.37022 0.04141,6.78976 0.10057,10.25858c0.17157,9.95291 0.22481,19.90582 0.15973,29.85873c0,0.08169 -0.06621,0.1479 -0.1479,0.1479l-23.3007,0.01775c-0.10946,0 -0.19819,-0.08874 -0.19819,-0.19819c0.00395,-12.58362 0.00395,-25.09131 0,-37.52308c0,-1.22464 0.07198,-2.05192 0.21593,-2.48182c0.282,-0.84404 0.83418,-1.51847 1.65652,-2.02332c0.14677,-0.08941 0.20701,-0.27139 0.14198,-0.42892c-0.49893,-1.23449 -0.91897,-2.46406 -1.26013,-3.68871c-0.67444,-2.42562 -1.01856,-3.66307 -1.03237,-3.71237c-0.35102,-1.23647 -0.63894,-2.4897 -0.86375,-3.75971c-0.11437,-0.64485 -0.30172,-1.26802 -0.56203,-1.8695c-0.72572,-1.67427 -1.42776,-3.35937 -2.10614,-5.05534c-1.03335,-2.58535 -1.5382,-5.16478 -1.51453,-7.7383c0.01578,-1.79456 0.51668,-3.53292 1.5027,-5.21508c1.85766,-3.17302 3.18879,-6.55705 3.99339,-10.15208c0.00799,-0.03545 -0.00034,-0.07261 -0.02268,-0.10126c-0.02234,-0.02865 -0.05636,-0.04577 -0.09268,-0.04666c-2.29151,-0.06311 -4.28229,-0.31454 -5.97234,-0.7543c-1.51059,-0.39243 -2.89595,-1.08463 -4.15608,-2.07656c-0.91502,-0.7198 -1.98585,-1.80343 -3.21246,-3.25091c-2.99751,-3.53785 -4.97942,-7.62886 -5.94572,-12.27302c-0.02564,-0.12819 -0.00493,-0.20114 0.06212,-0.21889c0.06246,-0.0177 0.15589,0.03197 0.23368,0.12423l7.44841,8.7825c0.0536,0.06436 0.14727,0.08777 0.23664,0.05916c0.27214,-0.0848 0.46541,-0.02268 0.57978,0.18636zM196.79218,139.03224c1.45236,0 2.62972,-1.92828 2.62972,-4.30695c0,-2.37867 -1.17736,-4.30695 -2.62972,-4.30695c-1.45236,0 -2.62972,1.92828 -2.62972,4.30695c0,2.37867 1.17736,4.30695 2.62972,4.30695zM216.487,139.46411c1.29388,0 2.34279,-1.96669 2.34279,-4.39272c0,-2.42604 -1.0489,-4.39273 -2.34279,-4.39273c-1.29389,0 -2.3428,1.9667 -2.3428,4.39273c0,2.42603 1.04891,4.39272 2.3428,4.39272z" fill="#ffffff" stroke="none" stroke-width="1"/><path d="M196.79218,130.41835c1.45236,0 2.62972,1.92828 2.62972,4.30695c0,2.37867 -1.17736,4.30695 -2.62972,4.30695c-1.45236,0 -2.62972,-1.92828 -2.62972,-4.30695c0,-2.37867 1.17736,-4.30695 2.62972,-4.30695z" fill="#000000" stroke="none" stroke-width="1"/><path d="M216.487,130.67865c1.29388,0 2.34279,1.9667 2.34279,4.39273c0,2.42603 -1.0489,4.39272 -2.34279,4.39272c-1.29389,0 -2.3428,-1.96669 -2.3428,-4.39272c0,-2.42604 1.04891,-4.39273 2.3428,-4.39273z" fill="#000000" stroke="none" stroke-width="1"/></g></g></svg>